# xmcd
#
# Track frame offsets: 
#        150
#        16424
#        30237
#        43006
#        56718
#        77325
#        95086
#        112372
#        125565
#        138257
#
# Disc length: 2030 seconds
#
# Revision: 0
# Processed by: cddbd v1.5.2PL0 Copyright (c) Steve Scherf et al.
# Submitted via: ExactAudioCopy v0.95b4
#
DISCID=8207ec0a
DTITLE=eMerle Haggard - 10 Top 10s Live
DYEAR=2006
DGENRE=Country
TTITLE0=Twinkle Twinkle Lucky Star 
TTITLE1=Workin' Man Blues
TTITLE2=Big City
TTITLE3=Mama Tried
TTITLE4=The Bottle Let Me Down
TTITLE5=What Am I Gonna Do
TTITLE6=Ramblin' Fever
TTITLE7=That's the Way Love Goes
TTITLE8=Okie from Muskogee
TTITLE9=The Fightin' Side of Me
EXTD=
EXTT0=
EXTT1=
EXTT2=
EXTT3=
EXTT4=
EXTT5=
EXTT6=
EXTT7=
EXTT8=
EXTT9=
PLAYORDER=
